{
  "title": "Fast and Furious 7 2015 FULL HDCAM NEW AUDIO MP4 MURD3R",
  "uid": 11796114,
  "size": 453472896,
  "categoryP": "video",
  "categoryS": "movies",
  "magnet": "?xt=urn:btih:46bffa3ea73bc1c538c0f7c7fd94821e28437f85&amp;dn=Fast+and+Furious+7+2015+FULL+HDCAM+NEW+AUDIO+MP4+MURD3R&amp;tr=udp%3A%2F%2Ftracker.openbittorrent.com%3A80&amp;tr=udp%3A%2F%2Fopen.demonii.com%3A1337&amp;tr=udp%3A%2F%2Ftracker.coppersurfer.tk%3A6969&amp;tr=udp%3A%2F%2Fexodus.desync.com%3A6969",
  "seeders": 72,
  "leechers": 9,
  "uploader": "makintos13",
  "files": 6,
  "time": 1428176691,
  "description": "screen:\n &lt;a href=&quot;\nhttp://imgmak.com/Rw&quot; rel=&quot;nofollow&quot; target=&quot;_NEW&quot;&gt;\nhttp://imgmak.com/Rw&lt;/a&gt;\n &lt;a href=&quot;\nhttp://imgmak.com/RJ&quot; rel=&quot;nofollow&quot; target=&quot;_NEW&quot;&gt;\nhttp://imgmak.com/RJ&lt;/a&gt;\n\n\nFast and Furious 7 2015 FULL HDCAM NEW AUDIO MP4 MURD3R.mp4\n\nFULL ENGLISH COPY\n\nFormat                      : MPEG-4\nFormat profile              : Base Media\nCodec ID                    : isom\nFile size                   : 432 MiB\nDuration                    : 2h 8mn\nOverall bit rate mode       : Variable\nOverall bit rate            : 468 Kbps\nWriting application         : Lavf54.63.104\n\nVideo\nID                          : 1\nFormat                      : AVC\nFormat/Info                 : Advanced Video Codec\nFormat profile              : &lt;a class=&quot;__cf_email__&quot; href=&quot;/cdn-cgi/l/email-protection&quot; data-cfemail=&quot;551d3c323d1519667b65&quot;&gt;[email&amp;#160;protected]&lt;/a&gt;&lt;script cf-hash='f9e31' type=&quot;text/javascript&quot;&gt;\n/* &lt;![CDATA[ */!function(){try{var t=&quot;currentScript&quot;in document?document.currentScript:function(){for(var t=document.getElementsByTagName(&quot;script&quot;),e=t.length;e--;)if(t[e].getAttribute(&quot;cf-hash&quot;))return t[e]}();if(t&amp;&amp;t.previousSibling){var e,r,n,i,c=t.previousSibling,a=c.getAttribute(&quot;data-cfemail&quot;);if(a){for(e=&quot;&quot;,r=parseInt(a.substr(0,2),16),n=2;a.length-n;n+=2)i=parseInt(a.substr(n,2),16)^r,e+=String.fromCharCode(i);e=document.createTextNode(e),c.parentNode.replaceChild(e,c)}}}catch(u){}}();/* ]]&gt; */&lt;/script&gt;\nFormat settings, CABAC      : Yes\nFormat settings, ReFrames   : 4 frames\nCodec ID                    : avc1\nCodec ID/Info               : Advanced Video Coding\nDuration                    : 2h 8mn\nBit rate                    : 326 Kbps\nWidth                       : 576 pixels\nHeight                      : 324 pixels\nDisplay aspect ratio        : 16:9\nFrame rate mode             : Variable\nFrame rate                  : 29.970 fps\nColor space                 : YUV\nChroma subsampling          : 4:2:0\nBit depth                   : 8 bits\nScan type                   : Progressive\nBits/(Pixel*Frame)          : 0.058\nStream size                 : 301 MiB (70%)\nWriting library             : x264 core \n\nAudio\nID                          : 2\nFormat                      : AAC\nFormat/Info                 : Advanced Audio Codec\nFormat profile              : LC\nCodec ID                    : 40\nDuration                    : 2h 8mn\nBit rate mode               : Variable\nBit rate                    : 132 Kbps\nMaximum bit rate            : 192 Kbps\nChannel(s)                  : 2 channels\nChannel positions           : Front: L R\nSampling rate               : 44.1 KHz\nCompression mode            : Lossy\nStream size                 : 121 MiB (28%)\nLanguage                    : unk",
  "parsed": {
    "xt": "urn:btih:46bffa3ea73bc1c538c0f7c7fd94821e28437f85",
    "dn": "Fast and Furious 7 2015 FULL HDCAM NEW AUDIO MP4 MURD3R",
    "tr": [
      "udp://exodus.desync.com:6969",
      "udp://open.demonii.com:1337",
      "udp://tracker.coppersurfer.tk:6969",
      "udp://tracker.openbittorrent.com:80"
    ],
    "infoHash": "46bffa3ea73bc1c538c0f7c7fd94821e28437f85",
    "infoHashBuffer": {
      "type": "Buffer",
      "data": [
        70,
        191,
        250,
        62,
        167,
        59,
        193,
        197,
        56,
        192,
        247,
        199,
        253,
        148,
        130,
        30,
        40,
        67,
        127,
        133
      ]
    },
    "name": "Fast and Furious 7 2015 FULL HDCAM NEW AUDIO MP4 MURD3R",
    "announce": [
      "udp://exodus.desync.com:6969",
      "udp://open.demonii.com:1337",
      "udp://tracker.coppersurfer.tk:6969",
      "udp://tracker.openbittorrent.com:80"
    ],
    "urlList": []
  },
  "previous": 9,
  "peers": 10,
  "last_updated": "2016-12-26T23:02:10.385Z"
}